<svg xmlns="http://www.w3.org/2000/svg" xmlns:xlink="http://www.w3.org/1999/xlink" width="500" zoomAndPan="magnify" viewBox="0 0 375 374.999991" height="500" preserveAspectRatio="xMidYMid meet" version="1.0"><defs><g></g><clipPath id="56e794ee9d"><path d="M 100.773438 87.347656 L 274.023438 87.347656 L 274.023438 247.847656 L 100.773438 247.847656 Z M 100.773438 87.347656 " clip-rule="nonzero"></path></clipPath><clipPath id="e0d61e30d1"><path d="M 100.773438 87.347656 L 188 87.347656 L 188 247.847656 L 100.773438 247.847656 Z M 100.773438 87.347656 " clip-rule="nonzero"></path></clipPath><clipPath id="85156a82c9"><rect x="0" width="181" y="0" height="26"></rect></clipPath></defs><rect x="-37.5" width="450" fill="#ffffff" y="-37.499999" height="449.999989" fill-opacity="1"></rect><rect x="-37.5" width="450" fill="#2c2c2c" y="-37.499999" height="449.999989" fill-opacity="1"></rect><g clip-path="url(#56e794ee9d)"><path fill="#f4f3f3" d="M 274.222656 234.4375 L 274.222656 247.976562 L 100.773438 247.976562 L 100.773438 234.4375 L 187.496094 211.984375 Z M 274.222656 183.476562 L 274.222656 212.769531 L 187.496094 188.28125 L 100.773438 212.769531 L 100.773438 183.476562 L 187.496094 143.140625 Z M 100.773438 162.453125 L 187.496094 121.054688 L 274.222656 162.453125 L 274.222656 137.457031 L 187.496094 87.371094 L 100.773438 137.457031 Z M 100.773438 162.453125 " fill-opacity="1" fill-rule="evenodd"></path></g><g clip-path="url(#e0d61e30d1)"><path fill="#f2fe06" d="M 187.496094 211.984375 L 187.496094 247.976562 L 100.773438 247.976562 L 100.773438 234.4375 Z M 187.496094 143.183594 L 187.496094 188.324219 L 100.773438 212.8125 L 100.773438 183.519531 Z M 100.773438 162.453125 L 187.496094 121.054688 L 187.496094 87.371094 L 100.773438 137.457031 Z M 100.773438 162.453125 " fill-opacity="1" fill-rule="evenodd"></path></g><g transform="matrix(1, 0, 0, 1, 97, 261)"><g clip-path="url(#85156a82c9)"><g fill="#f4f3f3" fill-opacity="1"><g transform="translate(1.155158, 19.569311)"><g><path d="M 32.9375 0 L 26.078125 0 L 26.078125 -10.4375 L 19.9375 0 L 14.8125 0 L 8.6875 -10.4375 L 8.6875 0 L 1.828125 0 L 1.828125 -16.375 L 9.984375 -16.375 L 17.375 -4.671875 L 24.78125 -16.375 L 32.9375 -16.375 Z M 32.9375 0 "></path></g></g></g><g fill="#f4f3f3" fill-opacity="1"><g transform="translate(35.907461, 19.569311)"><g><path d="M 12.375 0.359375 C 8.332031 0.359375 5.351562 -0.472656 3.4375 -2.140625 C 1.75 -3.609375 0.90625 -5.617188 0.90625 -8.171875 C 0.90625 -10.710938 1.75 -12.722656 3.4375 -14.203125 C 5.351562 -15.859375 8.332031 -16.6875 12.375 -16.6875 C 14.75 -16.6875 16.710938 -16.414062 18.265625 -15.875 C 19.816406 -15.332031 21.019531 -14.585938 21.875 -13.640625 C 22.738281 -12.703125 23.3125 -11.625 23.59375 -10.40625 L 16.375 -10.40625 C 15.644531 -11.675781 14.3125 -12.3125 12.375 -12.3125 C 10.71875 -12.3125 9.5 -11.832031 8.71875 -10.875 C 8.09375 -10.113281 7.78125 -9.210938 7.78125 -8.171875 C 7.78125 -7.128906 8.09375 -6.226562 8.71875 -5.46875 C 9.5 -4.507812 10.71875 -4.03125 12.375 -4.03125 C 14.3125 -4.03125 15.644531 -4.664062 16.375 -5.9375 L 23.59375 -5.9375 C 23.3125 -4.71875 22.738281 -3.632812 21.875 -2.6875 C 21.019531 -1.75 19.816406 -1.003906 18.265625 -0.453125 C 16.710938 0.0859375 14.75 0.359375 12.375 0.359375 Z M 12.375 0.359375 "></path></g></g></g><g fill="#f4f3f3" fill-opacity="1"><g transform="translate(60.398257, 19.569311)"><g><path d="M 0.6875 -6.75 L 0.6875 -9.484375 L 11.171875 -9.484375 L 11.171875 -6.75 Z M 0.6875 -6.75 "></path></g></g></g><g fill="#f4f3f3" fill-opacity="1"><g transform="translate(72.255998, 19.569311)"><g><path d="M 12.375 0.359375 C 8.332031 0.359375 5.351562 -0.472656 3.4375 -2.140625 C 1.75 -3.609375 0.90625 -5.617188 0.90625 -8.171875 C 0.90625 -10.710938 1.75 -12.722656 3.4375 -14.203125 C 5.351562 -15.859375 8.332031 -16.6875 12.375 -16.6875 C 14.75 -16.6875 16.710938 -16.414062 18.265625 -15.875 C 19.816406 -15.332031 21.019531 -14.585938 21.875 -13.640625 C 22.738281 -12.703125 23.3125 -11.625 23.59375 -10.40625 L 16.375 -10.40625 C 15.644531 -11.675781 14.3125 -12.3125 12.375 -12.3125 C 10.71875 -12.3125 9.5 -11.832031 8.71875 -10.875 C 8.09375 -10.113281 7.78125 -9.210938 7.78125 -8.171875 C 7.78125 -7.128906 8.09375 -6.226562 8.71875 -5.46875 C 9.5 -4.507812 10.71875 -4.03125 12.375 -4.03125 C 14.3125 -4.03125 15.644531 -4.664062 16.375 -5.9375 L 23.59375 -5.9375 C 23.3125 -4.71875 22.738281 -3.632812 21.875 -2.6875 C 21.019531 -1.75 19.816406 -1.003906 18.265625 -0.453125 C 16.710938 0.0859375 14.75 0.359375 12.375 0.359375 Z M 12.375 0.359375 "></path></g></g></g><g fill="#f4f3f3" fill-opacity="1"><g transform="translate(96.746794, 19.569311)"><g><path d="M 24.171875 0 L 17.671875 0 C 17.378906 -0.40625 17.171875 -0.929688 17.046875 -1.578125 C 16.941406 -2.066406 16.78125 -2.546875 16.5625 -3.015625 C 16.351562 -3.492188 15.988281 -3.890625 15.46875 -4.203125 C 14.945312 -4.523438 14.175781 -4.695312 13.15625 -4.71875 L 8.6875 -4.71875 L 8.6875 0 L 1.828125 0 L 1.828125 -16.375 L 12.984375 -16.375 C 15.660156 -16.375 17.816406 -16.171875 19.453125 -15.765625 C 21.085938 -15.367188 22.28125 -14.742188 23.03125 -13.890625 C 23.789062 -13.035156 24.171875 -11.921875 24.171875 -10.546875 C 24.171875 -9.390625 23.910156 -8.421875 23.390625 -7.640625 C 22.867188 -6.859375 22.046875 -6.238281 20.921875 -5.78125 C 22.003906 -5.332031 22.707031 -4.796875 23.03125 -4.171875 C 23.351562 -3.546875 23.554688 -2.851562 23.640625 -2.09375 C 23.710938 -1.425781 23.890625 -0.726562 24.171875 0 Z M 8.6875 -8.765625 L 12.609375 -8.765625 C 13.703125 -8.765625 14.566406 -8.8125 15.203125 -8.90625 C 15.835938 -9.007812 16.300781 -9.144531 16.59375 -9.3125 C 16.894531 -9.488281 17.085938 -9.679688 17.171875 -9.890625 C 17.253906 -10.097656 17.296875 -10.316406 17.296875 -10.546875 C 17.296875 -10.765625 17.253906 -10.976562 17.171875 -11.1875 C 17.085938 -11.40625 16.894531 -11.597656 16.59375 -11.765625 C 16.300781 -11.929688 15.835938 -12.0625 15.203125 -12.15625 C 14.566406 -12.257812 13.703125 -12.3125 12.609375 -12.3125 L 8.6875 -12.3125 Z M 8.6875 -8.765625 "></path></g></g></g><g fill="#f4f3f3" fill-opacity="1"><g transform="translate(121.819076, 19.569311)"><g><path d="M 21.53125 0 L 1.828125 0 L 1.828125 -16.375 L 20.640625 -16.375 L 20.640625 -12.3125 L 8.6875 -12.3125 L 8.6875 -9.75 L 18.78125 -9.75 L 18.78125 -6.609375 L 8.6875 -6.609375 L 8.6875 -4.046875 L 21.53125 -4.046875 Z M 21.53125 0 "></path></g></g></g><g fill="#f4f3f3" fill-opacity="1"><g transform="translate(144.25757, 19.569311)"><g><path d="M 8.6875 0 L 1.828125 0 L 1.828125 -16.375 L 12.984375 -16.375 C 15.660156 -16.375 17.816406 -16.171875 19.453125 -15.765625 C 21.085938 -15.367188 22.28125 -14.742188 23.03125 -13.890625 C 23.789062 -13.035156 24.171875 -11.921875 24.171875 -10.546875 C 24.171875 -9.171875 23.789062 -8.054688 23.03125 -7.203125 C 22.28125 -6.347656 21.085938 -5.71875 19.453125 -5.3125 C 17.816406 -4.914062 15.660156 -4.71875 12.984375 -4.71875 L 8.6875 -4.71875 Z M 8.6875 -8.765625 L 12.609375 -8.765625 C 13.703125 -8.765625 14.566406 -8.804688 15.203125 -8.890625 C 15.835938 -8.984375 16.300781 -9.109375 16.59375 -9.265625 C 16.894531 -9.429688 17.085938 -9.617188 17.171875 -9.828125 C 17.253906 -10.046875 17.296875 -10.285156 17.296875 -10.546875 C 17.296875 -10.796875 17.253906 -11.03125 17.171875 -11.25 C 17.085938 -11.46875 16.894531 -11.65625 16.59375 -11.8125 C 16.300781 -11.976562 15.835938 -12.101562 15.203125 -12.1875 C 14.566406 -12.269531 13.703125 -12.3125 12.609375 -12.3125 L 8.6875 -12.3125 Z M 8.6875 -8.765625 "></path></g></g></g><g fill="#f4f3f3" fill-opacity="1"><g transform="translate(169.329852, 19.569311)"><g><path d="M 8.6875 0 L 1.828125 0 L 1.828125 -16.375 L 8.6875 -16.375 Z M 8.6875 0 "></path></g></g></g></g></g></svg>